<?xml version="1.0" encoding="UTF-8" standalone="no"?>
<!DOCTYPE svg PUBLIC "-//W3C//DTD SVG 1.1//EN"
 "http://www.w3.org/Graphics/SVG/1.1/DTD/svg11.dtd">
<!-- Generated by graphviz version 12.0.0 (20240704.0754)
 -->
<!-- Title: G Pages: 1 -->
<svg width="1354pt" height="396pt"
 viewBox="0.00 0.00 1354.42 396.13" xmlns="http://www.w3.org/2000/svg" xmlns:xlink="http://www.w3.org/1999/xlink">
<g id="graph0" class="graph" transform="scale(1 1) rotate(0) translate(4 392.13)">
<title>G</title>
<polygon fill="white" stroke="none" points="-4,4 -4,-392.13 1350.42,-392.13 1350.42,4 -4,4"/>
<g id="clust1" class="cluster">
<title>cluster_0</title>
<polygon fill="#e6f2ff" stroke="#e6f2ff" points="8,-90.5 8,-317 272,-317 272,-90.5 8,-90.5"/>
<text text-anchor="middle" x="140" y="-96.1" font-family="Helvetica,Arial,sans-serif" font-size="22.00" fill="blue">Navier&#45;Stokes</text>
</g>
<g id="clust2" class="cluster">
<title>cluster_1</title>
<polygon fill="#e6ffe6" stroke="#e6ffe6" points="310,-8 310,-317 706,-317 706,-8 310,-8"/>
<text text-anchor="middle" x="508" y="-13.6" font-family="Helvetica,Arial,sans-serif" font-size="22.00" fill="darkgreen">Phase Change</text>
</g>
<g id="clust3" class="cluster">
<title>cluster_2</title>
<polygon fill="#fff0d9" stroke="#fff0d9" points="714,-90.5 714,-317 1336,-317 1336,-90.5 714,-90.5"/>
<text text-anchor="middle" x="1025" y="-96.1" font-family="Helvetica,Arial,sans-serif" font-size="22.00" fill="#7f4e1e">Thermodynamics and Combustion</text>
</g>
<!-- a2 -->
<g id="node1" class="node">
<title>a2</title>
<ellipse fill="white" stroke="black" cx="140" cy="-291" rx="123.98" ry="18"/>
<text text-anchor="middle" x="140" y="-285.2" font-family="Helvetica,Arial,sans-serif" font-size="14.00">navier&#45;stokes/velocity&#45;jump.h</text>
</g>
<!-- a1 -->
<g id="node2" class="node">
<title>a1</title>
<ellipse fill="white" stroke="black" cx="147" cy="-219" rx="110.33" ry="18"/>
<text text-anchor="middle" x="147" y="-213.2" font-family="Helvetica,Arial,sans-serif" font-size="14.00">navier&#45;stokes/low&#45;mach.h</text>
</g>
<!-- a2&#45;&gt;a1 -->
<g id="edge1" class="edge">
<title>a2&#45;&gt;a1</title>
<path fill="none" stroke="black" d="M141.73,-272.7C142.46,-265.41 143.33,-256.73 144.15,-248.54"/>
<polygon fill="black" stroke="black" points="147.63,-248.91 145.14,-238.61 140.66,-248.21 147.63,-248.91"/>
</g>
<!-- a0 -->
<g id="node3" class="node">
<title>a0</title>
<ellipse fill="white" stroke="black" cx="147" cy="-147" rx="106.43" ry="18"/>
<text text-anchor="middle" x="147" y="-141.2" font-family="Helvetica,Arial,sans-serif" font-size="14.00">navier&#45;stokes/centered.h</text>
</g>
<!-- a1&#45;&gt;a0 -->
<g id="edge2" class="edge">
<title>a1&#45;&gt;a0</title>
<path fill="none" stroke="black" d="M147,-200.7C147,-193.41 147,-184.73 147,-176.54"/>
<polygon fill="black" stroke="black" points="150.5,-176.62 147,-166.62 143.5,-176.62 150.5,-176.62"/>
</g>
<!-- b00 -->
<g id="node4" class="node">
<title>b00</title>
<ellipse fill="white" stroke="black" cx="436" cy="-291" rx="63.53" ry="18"/>
<text text-anchor="middle" x="436" y="-285.2" font-family="Helvetica,Arial,sans-serif" font-size="14.00">evaporation.h</text>
</g>
<!-- b10 -->
<g id="node6" class="node">
<title>b10</title>
<ellipse fill="white" stroke="black" cx="399" cy="-219" rx="80.59" ry="18"/>
<text text-anchor="middle" x="399" y="-213.2" font-family="Helvetica,Arial,sans-serif" font-size="14.00">multicomponent.h</text>
</g>
<!-- b00&#45;&gt;b10 -->
<g id="edge3" class="edge">
<title>b00&#45;&gt;b10</title>
<path fill="none" stroke="black" d="M426.85,-272.7C422.78,-264.98 417.88,-255.71 413.33,-247.11"/>
<polygon fill="black" stroke="black" points="416.52,-245.65 408.75,-238.44 410.33,-248.92 416.52,-245.65"/>
</g>
<!-- b01 -->
<g id="node5" class="node">
<title>b01</title>
<ellipse fill="white" stroke="black" cx="598" cy="-291" rx="43.06" ry="18"/>
<text text-anchor="middle" x="598" y="-285.2" font-family="Helvetica,Arial,sans-serif" font-size="14.00">boiling.h</text>
</g>
<!-- b11 -->
<g id="node7" class="node">
<title>b11</title>
<ellipse fill="white" stroke="black" cx="598" cy="-219" rx="100.09" ry="18"/>
<text text-anchor="middle" x="598" y="-213.2" font-family="Helvetica,Arial,sans-serif" font-size="14.00">temperature&#45;gradient.h</text>
</g>
<!-- b01&#45;&gt;b11 -->
<g id="edge6" class="edge">
<title>b01&#45;&gt;b11</title>
<path fill="none" stroke="black" d="M598,-272.7C598,-265.41 598,-256.73 598,-248.54"/>
<polygon fill="black" stroke="black" points="601.5,-248.62 598,-238.62 594.5,-248.62 601.5,-248.62"/>
</g>
<!-- b2 -->
<g id="node8" class="node">
<title>b2</title>
<ellipse fill="white" stroke="black" cx="498" cy="-147" rx="70.36" ry="18"/>
<text text-anchor="middle" x="498" y="-141.2" font-family="Helvetica,Arial,sans-serif" font-size="14.00">phasechange.h</text>
</g>
<!-- b10&#45;&gt;b2 -->
<g id="edge4" class="edge">
<title>b10&#45;&gt;b2</title>
<path fill="none" stroke="black" d="M422.46,-201.41C435.28,-192.34 451.37,-180.97 465.39,-171.06"/>
<polygon fill="black" stroke="black" points="467.33,-173.97 473.47,-165.34 463.29,-168.26 467.33,-173.97"/>
</g>
<!-- b11&#45;&gt;b2 -->
<g id="edge7" class="edge">
<title>b11&#45;&gt;b2</title>
<path fill="none" stroke="black" d="M573.79,-201.05C560.83,-191.98 544.68,-180.68 530.63,-170.84"/>
<polygon fill="black" stroke="black" points="532.74,-168.04 522.54,-165.17 528.72,-173.78 532.74,-168.04"/>
</g>
<!-- b3 -->
<g id="node9" class="node">
<title>b3</title>
<ellipse fill="white" stroke="black" cx="498" cy="-64.5" rx="41.6" ry="18"/>
<text text-anchor="middle" x="498" y="-58.7" font-family="Helvetica,Arial,sans-serif" font-size="14.00">phase.h</text>
</g>
<!-- b2&#45;&gt;b3 -->
<g id="edge5" class="edge">
<title>b2&#45;&gt;b3</title>
<path fill="none" stroke="black" d="M498,-128.53C498,-118.51 498,-105.68 498,-94.21"/>
<polygon fill="black" stroke="black" points="501.5,-94.45 498,-84.45 494.5,-94.45 501.5,-94.45"/>
</g>
<!-- c0 -->
<g id="node10" class="node">
<title>c0</title>
<ellipse fill="white" stroke="black" cx="1038" cy="-291" rx="90.34" ry="18"/>
<text text-anchor="middle" x="1038" y="-285.2" font-family="Helvetica,Arial,sans-serif" font-size="14.00">variable&#45;properties.h</text>
</g>
<!-- d1 -->
<g id="node12" class="node">
<title>d1</title>
<ellipse fill="#e5e5e5" stroke="#af1e1e" cx="1179" cy="-219" rx="104.97" ry="18"/>
<text text-anchor="middle" x="1179" y="-213.2" font-family="Helvetica,Arial,sans-serif" font-size="14.00">opensmoke/properties.h</text>
</g>
<!-- c0&#45;&gt;d1 -->
<g id="edge9" class="edge">
<title>c0&#45;&gt;d1</title>
<path fill="none" stroke="black" d="M1070.7,-273.76C1090.05,-264.16 1114.79,-251.88 1135.74,-241.48"/>
<polygon fill="black" stroke="black" points="1137.23,-244.64 1144.63,-237.06 1134.12,-238.37 1137.23,-244.64"/>
</g>
<!-- c1 -->
<g id="node11" class="node">
<title>c1</title>
<ellipse fill="white" stroke="black" cx="1237" cy="-291" rx="90.83" ry="18"/>
<text text-anchor="middle" x="1237" y="-285.2" font-family="Helvetica,Arial,sans-serif" font-size="14.00">two&#45;phase&#45;varprop.h</text>
</g>
<!-- c1&#45;&gt;d1 -->
<g id="edge8" class="edge">
<title>c1&#45;&gt;d1</title>
<path fill="none" stroke="black" d="M1222.96,-273.05C1216.22,-264.92 1208,-255 1200.5,-245.94"/>
<polygon fill="black" stroke="black" points="1203.35,-243.91 1194.28,-238.44 1197.96,-248.37 1203.35,-243.91"/>
</g>
<!-- d0 -->
<g id="node13" class="node">
<title>d0</title>
<ellipse fill="#e5e5e5" stroke="#af1e1e" cx="984" cy="-147" rx="111.79" ry="18"/>
<text text-anchor="middle" x="984" y="-141.2" font-family="Helvetica,Arial,sans-serif" font-size="14.00">opensmoke/opensmoke.h</text>
</g>
<!-- d1&#45;&gt;d0 -->
<g id="edge12" class="edge">
<title>d1&#45;&gt;d0</title>
<path fill="none" stroke="black" d="M1135.24,-202.29C1106.71,-192.05 1069.26,-178.61 1038.76,-167.66"/>
<polygon fill="black" stroke="black" points="1040.31,-164.5 1029.71,-164.41 1037.94,-171.08 1040.31,-164.5"/>
</g>
<!-- d2 -->
<g id="node14" class="node">
<title>d2</title>
<ellipse fill="#e5e5e5" stroke="#af1e1e" cx="870" cy="-219" rx="97.65" ry="18"/>
<text text-anchor="middle" x="870" y="-213.2" font-family="Helvetica,Arial,sans-serif" font-size="14.00">opensmoke/reactors.h</text>
</g>
<!-- d2&#45;&gt;d0 -->
<g id="edge11" class="edge">
<title>d2&#45;&gt;d0</title>
<path fill="none" stroke="black" d="M897.31,-201.23C912.14,-192.12 930.71,-180.72 946.84,-170.82"/>
<polygon fill="black" stroke="black" points="948.54,-173.88 955.23,-165.66 944.88,-167.91 948.54,-173.88"/>
</g>
<!-- d3 -->
<g id="node15" class="node">
<title>d3</title>
<ellipse fill="#e5e5e5" stroke="#af1e1e" cx="826" cy="-291" rx="103.5" ry="18"/>
<text text-anchor="middle" x="826" y="-285.2" font-family="Helvetica,Arial,sans-serif" font-size="14.00">opensmoke/chemistry.h</text>
</g>
<!-- d3&#45;&gt;d2 -->
<g id="edge10" class="edge">
<title>d3&#45;&gt;d2</title>
<path fill="none" stroke="black" d="M836.88,-272.7C841.78,-264.9 847.68,-255.51 853.14,-246.83"/>
<polygon fill="black" stroke="black" points="856.08,-248.71 858.44,-238.39 850.16,-244.99 856.08,-248.71"/>
</g>
<!-- main -->
<g id="node16" class="node">
<title>main</title>
<ellipse fill="none" stroke="black" cx="598" cy="-366.57" rx="93.51" ry="21.57"/>
<text text-anchor="middle" x="598" y="-356.92" font-family="Helvetica,Arial,sans-serif" font-size="22.00">simulation.c</text>
</g>
<!-- main&#45;&gt;a2 -->
<g id="edge13" class="edge">
<title>main&#45;&gt;a2</title>
<path fill="none" stroke="black" d="M519.98,-354.36C455.12,-344.9 360.45,-330.72 278,-317 260.96,-314.16 242.76,-310.98 225.36,-307.86"/>
<polygon fill="black" stroke="black" points="226.01,-304.42 215.55,-306.09 224.77,-311.31 226.01,-304.42"/>
</g>
<!-- main&#45;&gt;a1 -->
<g id="edge14" class="edge">
<title>main&#45;&gt;a1</title>
<path fill="none" stroke="black" d="M510.9,-358.26C437.65,-350.82 339.65,-337.45 306,-317 285.11,-304.31 292.27,-288.04 273,-273 254.6,-258.64 231.73,-247.48 210.55,-239.2"/>
<polygon fill="black" stroke="black" points="211.99,-236 201.4,-235.77 209.54,-242.56 211.99,-236"/>
</g>
<!-- main&#45;&gt;b00 -->
<g id="edge15" class="edge">
<title>main&#45;&gt;b00</title>
<path fill="none" stroke="black" d="M556.7,-346.81C532.86,-335.98 502.91,-322.39 478.82,-311.44"/>
<polygon fill="black" stroke="black" points="480.47,-308.35 469.92,-307.4 477.58,-314.73 480.47,-308.35"/>
</g>
<!-- main&#45;&gt;b01 -->
<g id="edge16" class="edge">
<title>main&#45;&gt;b01</title>
<path fill="none" stroke="black" d="M598,-344.68C598,-337.24 598,-328.71 598,-320.72"/>
<polygon fill="black" stroke="black" points="601.5,-320.73 598,-310.73 594.5,-320.73 601.5,-320.73"/>
</g>
<!-- main&#45;&gt;c1 -->
<g id="edge19" class="edge">
<title>main&#45;&gt;c1</title>
<path fill="none" stroke="black" d="M689.63,-361.65C797.32,-356.04 981.13,-343.34 1137,-317 1149.49,-314.89 1162.71,-312.04 1175.31,-309.01"/>
<polygon fill="black" stroke="black" points="1175.85,-312.48 1184.72,-306.68 1174.18,-305.69 1175.85,-312.48"/>
</g>
<!-- main&#45;&gt;d1 -->
<g id="edge17" class="edge">
<title>main&#45;&gt;d1</title>
<path fill="none" stroke="black" d="M691.85,-366.39C881.01,-367.05 1293.8,-363.13 1337,-317 1350.37,-302.73 1348.42,-288.88 1337,-273 1322.64,-253.04 1300.4,-240.49 1277.1,-232.63"/>
<polygon fill="black" stroke="black" points="1278.38,-229.36 1267.79,-229.78 1276.33,-236.06 1278.38,-229.36"/>
</g>
<!-- main&#45;&gt;d3 -->
<g id="edge18" class="edge">
<title>main&#45;&gt;d3</title>
<path fill="none" stroke="black" d="M651.17,-348.41C685.99,-337.18 731.52,-322.49 767.39,-310.91"/>
<polygon fill="black" stroke="black" points="768.3,-314.29 776.74,-307.89 766.15,-307.63 768.3,-314.29"/>
</g>
</g>
</svg>
